<svg width="72" height="72" viewBox="0 0 72 72" fill="none" xmlns="http://www.w3.org/2000/svg">
<g id="Prompt">
<g id="Union">
<path d="M49 34H51V27H43V31H37V25H39V23H41V21H53V23H55V25H57V36H55V40H53V42H51V44H49V46H43V40H45V38H47V36H49V34Z" fill="#404040"/>
<path d="M49 54V48H43V54H49Z" fill="#404040"/>
<path d="M14 14H16V20H14V14Z" fill="#404040"/>
<path fill-rule="evenodd" clip-rule="evenodd" d="M4 4V68H68V4H4ZM54 56V58H26V56H30V54H32V22H34V18H36V16H40V14H54V16H58V18H60V22H62V50H60V54H58V56H54ZM24 44V6H6V66H20V58H14V56H20V46H16V44H24Z" fill="#404040"/>
</g>
</g>
</svg>
